<svg aria-hidden="true" style="position: absolute; width: 0; height: 0; overflow: hidden;" version="1.1" xmlns="http://www.w3.org/2000/svg" xmlns:xlink="http://www.w3.org/1999/xlink">
<defs>
<symbol id="icon-eyedropper" viewBox="0 0 32 32">
<title>eyedropper</title>
<path d="M30.828 1.172c-1.562-1.562-4.095-1.562-5.657 0l-5.379 5.379-3.793-3.793-4.243 4.243 3.326 3.326-14.754 14.754c-0.252 0.252-0.358 0.592-0.322 0.921h-0.008v5c0 0.552 0.448 1 1 1h5c0 0 0.083 0 0.125 0 0.288 0 0.576-0.11 0.795-0.329l14.754-14.754 3.326 3.326 4.243-4.243-3.793-3.793 5.379-5.379c1.562-1.562 1.562-4.095 0-5.657zM5.409 30h-3.409v-3.409l14.674-14.674 3.409 3.409-14.674 14.674z"></path>
</symbol>
<symbol id="icon-star-empty" viewBox="0 0 32 32">
<title>star-empty</title>
<path d="M32 12.408l-11.056-1.607-4.944-10.018-4.944 10.018-11.056 1.607 8 7.798-1.889 11.011 9.889-5.199 9.889 5.199-1.889-11.011 8-7.798zM16 23.547l-6.983 3.671 1.334-7.776-5.65-5.507 7.808-1.134 3.492-7.075 3.492 7.075 7.807 1.134-5.65 5.507 1.334 7.776-6.983-3.671z"></path>
</symbol>
<symbol id="icon-star-full" viewBox="0 0 32 32">
<title>star-full</title>
<path d="M32 12.408l-11.056-1.607-4.944-10.018-4.944 10.018-11.056 1.607 8 7.798-1.889 11.011 9.889-5.199 9.889 5.199-1.889-11.011 8-7.798z"></path>
</symbol>
</defs>
</svg>
